<svg xmlns="http://www.w3.org/2000/svg" xmlns:xlink="http://www.w3.org/1999/xlink" viewBox="0 0 52.2 76.89">
  <defs>
    <style>.cls-1,.cls-10,.cls-3,.cls-6,.cls-8{fill:#fff;}.cls-1{clip-rule:evenodd;}.cls-2{fill:#00ce8a;stroke:#009665;}.cls-2,.cls-3,.cls-7{stroke-miterlimit:10;}.cls-2,.cls-3{stroke-width:2px;}.cls-3{stroke:#00ce8a;}.cls-4{fill:url(#radial-gradient);}.cls-5{opacity:0.5;}.cls-7{fill:none;stroke:#079e71;}.cls-8{fill-rule:evenodd;}.cls-9{clip-path:url(#clip-path);}.cls-10{opacity:0.9;}</style>
    <radialGradient id="radial-gradient" cx="-310.75" cy="-25.36" fx="-328.6313322454894" fy="-48.806667842840824" r="44.1" gradientTransform="translate(382.6 54.55) scale(1.16 1.16)" gradientUnits="userSpaceOnUse">
      <stop offset="0" stop-color="#30d59e"/>
      <stop offset="1" stop-color="#01bc7d"/>
    </radialGradient>
    <clipPath id="clip-path">
      <path class="cls-1" d="M26.1,16.61l-8,7.49v8.14h4v-6h8v6h4V24.1Zm-.83-2a1.13,1.13,0,0,1,.83-.37,1.18,1.18,0,0,1,.83.35l9.17,8.65v11h-8v-6h-4v6h-8v-11Z"/>
    </clipPath>
  </defs>
  <title>depot</title>
  <g id="Layer_2" data-name="Layer 2">
    <g id="Layer_1-2" data-name="Layer 1">
      <circle class="cls-2" cx="26.1" cy="72.5" r="3.39"/>
      <line class="cls-3" x1="26.1" y1="72.5" x2="26.1" y2="50.2"/>
      <circle class="cls-4" cx="26.1" cy="26.1" r="24.1"/>
      <g class="cls-5">
        <path class="cls-6" d="M26.1,2A24.1,24.1,0,1,1,2,26.1,24.1,24.1,0,0,1,26.1,2m0-2A26.1,26.1,0,1,0,52.2,26.1,26.13,26.13,0,0,0,26.1,0Z"/>
      </g>
      <circle class="cls-7" cx="26.1" cy="26.1" r="24.1"/>
      <path class="cls-8" d="M26.1,16.61l-8,7.49v8.14h4v-6h8v6h4V24.1Zm-.83-2a1.13,1.13,0,0,1,.83-.37,1.18,1.18,0,0,1,.83.35l9.17,8.65v11h-8v-6h-4v6h-8v-11Z"/>
      <g class="cls-9">
        <rect class="cls-10" x="11.1" y="9.24" width="30" height="30"/>
      </g>
    </g>
  </g>
</svg>