<svg id="Layer_1" data-name="Layer 1" xmlns="http://www.w3.org/2000/svg" viewBox="0 0 202.1 44.7"><defs><style>.cls-1{fill:#fff;}.cls-2{fill:#003764;}.cls-3{fill:#00956d;}.cls-4{fill:#2e2a25;}.cls-5{fill:#cb003d;}</style></defs><title>Vector Smart Object</title><path class="cls-1" d="M202.1,12.79A12.79,12.79,0,1,1,189.3,0,12.79,12.79,0,0,1,202.1,12.79"/><path class="cls-2" d="M8.53,20.49A13.46,13.46,0,0,1,18,23.86a11,11,0,0,1,3.7,8.49,11.1,11.1,0,0,1-3.78,8.56,13.6,13.6,0,0,1-9.51,3.44H0V20.49H8.53ZM5.22,39.85H8.63a7.84,7.84,0,0,0,5.63-2.11,7,7,0,0,0,2.22-5.32,7,7,0,0,0-2.22-5.31A7.86,7.86,0,0,0,8.63,25H5.22V39.85Z"/><path class="cls-2" d="M24.19,20.49H34.52A9.24,9.24,0,0,1,41,22.72a7.53,7.53,0,0,1,2.45,5.85,7.62,7.62,0,0,1-2.54,5.9,9.37,9.37,0,0,1-6.56,2.32H29.4v7.57H24.19V20.49Zm5.21,4.4v7.64H34a4.4,4.4,0,0,0,3.09-1.08,3.79,3.79,0,0,0,0-5.49A4.4,4.4,0,0,0,34,24.89H29.4Z"/><path class="cls-2" d="M106,23.66a11.71,11.71,0,0,1,3.56,8.69,11.8,11.8,0,0,1-3.65,8.76,13,13,0,0,1-17.85.09,11.66,11.66,0,0,1-3.56-8.68,11.86,11.86,0,0,1,3.65-8.78,12.28,12.28,0,0,1,9-3.6A12.14,12.14,0,0,1,106,23.66m-3.72,14.11a7.35,7.35,0,0,0,2.1-5.35,7.31,7.31,0,0,0-2.1-5.32,7.47,7.47,0,0,0-10.48,0,7.34,7.34,0,0,0-2.08,5.32,7.38,7.38,0,0,0,2.08,5.35,7.47,7.47,0,0,0,10.48,0"/><path class="cls-2" d="M112.57,20.49h10.67a8.92,8.92,0,0,1,6.2,2.15,7.17,7.17,0,0,1,2.39,5.59,7.44,7.44,0,0,1-5,7.2l6,8.93h-6l-5.35-8.22h-3.68v8.22h-5.22V20.49Zm5.22,4.4v7.23h4.81a4.21,4.21,0,0,0,3-1,3.66,3.66,0,0,0,0-5.22,4.21,4.21,0,0,0-3-1h-4.81Z"/><polygon class="cls-2" points="135.75 44.35 135.75 20.49 140.97 20.49 140.97 39.72 152.63 39.72 152.63 44.35 135.75 44.35"/><path class="cls-2" d="M163.71,20.49a13.46,13.46,0,0,1,9.43,3.38,11,11,0,0,1,3.7,8.49,11.1,11.1,0,0,1-3.78,8.56,13.61,13.61,0,0,1-9.51,3.44h-8.35V20.49h8.52ZM160.4,39.85h3.41a7.84,7.84,0,0,0,5.63-2.11,7,7,0,0,0,2.21-5.32,7,7,0,0,0-2.21-5.31A7.86,7.86,0,0,0,163.81,25H160.4V39.85Z"/><polygon class="cls-2" points="79.24 20.49 74.23 36.44 74.19 36.58 69.12 20.49 63.96 20.49 65.86 26.53 62.51 37.15 57.23 20.49 51.5 20.49 59.55 44.35 59.55 44.35 64.76 44.35 64.76 44.35 68.04 33.52 71.44 44.35 72.12 44.35 76.65 44.35 76.65 44.35 84.7 20.49 79.24 20.49"/><path class="cls-3" d="M181.09,7.34a12.78,12.78,0,0,0,.2,2.25A17.47,17.47,0,0,1,194.36,4a18.64,18.64,0,0,1,4.76.61,12.79,12.79,0,0,0-17-2.38l-0.35,1a12.8,12.8,0,0,0-.67,4.09"/><path class="cls-4" d="M195.67,21a15.53,15.53,0,0,0,3-.28l0.89-.17a12.81,12.81,0,0,0,2-11.46c-2.2,5.17-7.54,9-14,9.62A14.87,14.87,0,0,0,190,19.88,15.38,15.38,0,0,0,195.67,21"/><path class="cls-5" d="M195.67,21.7a15.78,15.78,0,0,1-11.15-4.51c-1.59,1.3-3.18,2.73-4.67,4.22a12.79,12.79,0,0,0,18.92,0,16.46,16.46,0,0,1-3.1.29"/><path class="cls-5" d="M180.35,7.34A13.53,13.53,0,0,1,181.05,3a12.8,12.8,0,0,0-3.8,14.06c1.42-1.35,2.92-2.65,4.44-3.84a13.55,13.55,0,0,1-1.35-5.89"/><path class="cls-2" d="M194,5.54a2.32,2.32,0,0,1,1.21.36l-0.3.12a10.2,10.2,0,0,0-3.14,2.33l-1,.89a19,19,0,0,1-1.69,1.25c-0.31-1,.34-1.53,1.16-2.13l0,0A5.27,5.27,0,0,0,191.59,7l0.17-.22a3.18,3.18,0,0,1,1.79-1.2A2.26,2.26,0,0,1,194,5.54"/><path class="cls-2" d="M197.15,9.76a2,2,0,0,1-.6,1,3.49,3.49,0,0,1-2.67,1l-1,0h-0.07a6.14,6.14,0,0,0-.72.07,8.68,8.68,0,0,1-1.08.09,1.81,1.81,0,0,1-1.42-.5,9.66,9.66,0,0,1,2.36-.71h0.17s0.57,0,1.17,0h0.81a3.05,3.05,0,0,0,1.26-.25,17.56,17.56,0,0,1,1.75-.6"/><path class="cls-2" d="M189.67,12a1.72,1.72,0,0,1-.89-1,2.23,2.23,0,0,1-.19-1.21A2.78,2.78,0,0,1,190,8l0,0,0.38-.3c-0.29,0-.65.08-1.14,0.12a2,2,0,0,0-1.75,1,3.21,3.21,0,0,0-.4,1.56,3.3,3.3,0,0,0,.81,2.18,2.5,2.5,0,0,0,1.89.89,2.73,2.73,0,0,0,1-.21,2.9,2.9,0,0,0,1-.76l0.17-.17a7.87,7.87,0,0,1-1,.08,2.54,2.54,0,0,1-1.37-.33"/><path class="cls-2" d="M186.7,10.59a60.08,60.08,0,0,0-9.15,7.23,12.59,12.59,0,0,0,.65,1.3A59.45,59.45,0,0,1,187.07,12a3.8,3.8,0,0,1-.38-1.4"/><path class="cls-2" d="M187.61,12.8a3.47,3.47,0,0,1-.28-0.36,61.74,61.74,0,0,0-8.79,7.25,12.82,12.82,0,0,0,.83,1.14,59.55,59.55,0,0,1,9-7.41,3.26,3.26,0,0,1-.74-0.63"/><path class="cls-2" d="M195.39,6.33l-0.3.12a10,10,0,0,0-3,2.24L192,8.77a51.87,51.87,0,0,1,8.44-2.28,12.82,12.82,0,0,0-.81-1.25c-1.15.24-2.28,0.49-3.38,0.76Z"/><path class="cls-2" d="M193.34,10.12h0.8a2.64,2.64,0,0,0,1.08-.21A16.94,16.94,0,0,1,197,9.31l0.15,0a31.78,31.78,0,0,1,4.12-1A12.67,12.67,0,0,0,200.71,7c-3.15.58-6.14,1.42-8.35,3.17l1,0"/></svg>