<svg xmlns="http://www.w3.org/2000/svg" xmlns:xlink="http://www.w3.org/1999/xlink" viewBox="0 0 23.37 24.14"><defs><style>.cls-1,.cls-2,.cls-3,.cls-8{fill:#4157a6;}.cls-1{clip-rule:evenodd;}.cls-3{fill-rule:evenodd;}.cls-4{clip-path:url(#clip-path);}.cls-5{isolation:isolate;}.cls-6{clip-path:url(#clip-path-2);}.cls-7{clip-path:url(#clip-path-3);}.cls-8{opacity:0.9;}</style><clipPath id="clip-path"><path class="cls-1" d="M15.19,9.35h-7a.4.4,0,0,0-.39.32V14h7.79V9.74A.39.39,0,0,0,15.19,9.35Zm2.72-5.46a1.57,1.57,0,0,1,1.56,1.45v11H17.91V5.84a.37.37,0,0,0-.3-.38H5.86a.42.42,0,0,0-.4.32V16.36H3.89V5.45A1.56,1.56,0,0,1,5.34,3.9H17.91ZM10.12,15.58H7.79v1.55h2.33Zm5.46,0H13.24v1.55h2.34Zm.78-7.79a.79.79,0,0,1,.77.69V18.69a1.56,1.56,0,0,1-1.44,1.56H14V18.69H9.35v1.56H7.79a1.57,1.57,0,0,1-1.56-1.44V8.57a.79.79,0,0,1,.69-.78h9.44Z"/></clipPath><clipPath id="clip-path-2"><rect class="cls-2" width="23.37" height="24.14"/></clipPath><clipPath id="clip-path-3"><rect class="cls-2" x="3.89" y="3.89" width="15.58" height="16.36"/></clipPath></defs><title>truck-blue</title><g id="Layer_2" data-name="Layer 2"><g id="Layer_1-2" data-name="Layer 1"><path class="cls-3" d="M15.19,9.35h-7a.4.4,0,0,0-.39.32V14h7.79V9.74A.39.39,0,0,0,15.19,9.35Zm2.72-5.46a1.57,1.57,0,0,1,1.56,1.45v11H17.91V5.84a.37.37,0,0,0-.3-.38H5.86a.42.42,0,0,0-.4.32V16.36H3.89V5.45A1.56,1.56,0,0,1,5.34,3.9H17.91ZM10.12,15.58H7.79v1.55h2.33Zm5.46,0H13.24v1.55h2.34Zm.78-7.79a.79.79,0,0,1,.77.69V18.69a1.56,1.56,0,0,1-1.44,1.56H14V18.69H9.35v1.56H7.79a1.57,1.57,0,0,1-1.56-1.44V8.57a.79.79,0,0,1,.69-.78h9.44Z"/><g class="cls-4"><g class="cls-5"><rect class="cls-2" width="23.37" height="24.14"/><g class="cls-6"><rect class="cls-2" x="3.89" y="3.89" width="15.58" height="16.36"/><g class="cls-7"><rect class="cls-8" width="23.37" height="24.14"/></g></g></g></g></g></g></svg>