<svg xmlns="http://www.w3.org/2000/svg" xmlns:xlink="http://www.w3.org/1999/xlink" viewBox="0 0 30.27 30"><defs><style>.cls-1{fill:none;clip-rule:evenodd;}.cls-2{clip-path:url(#clip-path);}.cls-3{fill:#101620;opacity:0.9;}</style><clipPath id="clip-path"><path class="cls-1" d="M15.14,17.48a2.5,2.5,0,1,1,2.5-2.5A2.5,2.5,0,0,1,15.14,17.48Zm0-7a4.5,4.5,0,1,0,4.5,4.5A4.49,4.49,0,0,0,15.14,10.48Zm6.27,3.81v1.42l-.12,1.06.82.69.59.51-1.27,2.21-.66-.25-1-.4-.88.66a6.12,6.12,0,0,1-1.18.7l-.9.4-.23,1L16.4,23H13.9l-.18-.75-.22-1-.9-.4a6.12,6.12,0,0,1-1.18-.7l-.88-.66-1,.4-.63.23L7.6,17.92l.54-.48L9,16.75l-.12-1.06a6.74,6.74,0,0,1,0-1.42L9,13.21l-.82-.69L7.6,12,8.88,9.82l.62.23,1,.39.88-.65a6.19,6.19,0,0,1,1.19-.7l.9-.41.22-1L13.9,7h2.44l.17.75.23,1,.9.4a6.71,6.71,0,0,1,1.19.69l.88.66,1-.39.66-.25L22.67,12l-.59.49-.83.69Zm2,.71a7.26,7.26,0,0,0-.06-.93l1.89-1.59-3-5.15L20,8.18a8.75,8.75,0,0,0-1.56-.92L17.91,5H12.32l-.54,2.26a8.84,8.84,0,0,0-1.57.92L8,7.34,5,12.48l1.84,1.57a7.25,7.25,0,0,0,0,.93,7.25,7.25,0,0,0,0,.93L5,17.48l3,5.14,2.22-.84a8.75,8.75,0,0,0,1.56.92l.5,2.3h5.59l.55-2.28A8.75,8.75,0,0,0,20,21.8l2.25.85,3-5.13-1.88-1.59A7.22,7.22,0,0,0,23.41,15Z"/></clipPath></defs><title>Asset 11</title><g id="Layer_2" data-name="Layer 2"><g id="Layer_1-2" data-name="Layer 1"><g class="cls-2"><rect class="cls-3" width="30.27" height="30"/></g></g></g></svg>