<?xml version="1.0" encoding="UTF-8"?>
<svg width="12px" height="12px" viewBox="0 0 12 12" version="1.1" xmlns="http://www.w3.org/2000/svg" xmlns:xlink="http://www.w3.org/1999/xlink">
    <!-- Generator: Sketch 52.3 (67297) - http://www.bohemiancoding.com/sketch -->
    <title>lui-Icon--clear-dark-60x60</title>
    <desc>Created with Sketch.</desc>
    <g id="Symbols" stroke="none" stroke-width="1" fill="none" fill-rule="evenodd">
        <g id="lui-notification--toast-affirmative-close" transform="translate(-1554.000000, -44.000000)">
            <g id="lui-Icon--clear-light-60x60">
                <g transform="translate(1530.000000, 20.000000)">
                    <g>
                        <rect id="Margin" x="0" y="0" width="60" height="60"></rect>
                        <rect id="20x20" x="10" y="10" width="40" height="40"></rect>
                        <path d="M32.118763,30.0000058 L35.783263,26.3340058 C36.074263,26.0445058 36.071263,25.5720058 35.778763,25.2795058 L34.719763,24.2205058 C34.427263,23.9280058 33.956263,23.9265058 33.665263,24.2160058 L29.999263,27.8805058 L26.334763,24.2160058 C26.045263,23.9265058 25.572763,23.9280058 25.280263,24.2205058 L24.221263,25.2795058 C23.928763,25.5720058 23.925763,26.0445058 24.215263,26.3340058 L27.881263,30.0000058 L24.215263,33.6645058 C23.925763,33.9555058 23.928763,34.4280058 24.221263,34.7190058 L25.280263,35.7795058 C25.572763,36.0720058 26.045263,36.0735058 26.334763,35.7840058 L29.999263,32.1180058 L33.665263,35.7840058 C33.956263,36.0735058 34.427263,36.0720058 34.719763,35.7795058 L35.778763,34.7190058 C36.071263,34.4280058 36.074263,33.9555058 35.783263,33.6645058 L32.118763,30.0000058 Z" id="Clear" fill="#000000"></path>
                    </g>
                </g>
            </g>
        </g>
    </g>
</svg>