<svg xmlns="http://www.w3.org/2000/svg" xmlns:xlink="http://www.w3.org/1999/xlink" viewBox="0 0 28.1 28.1"><defs><style>.cls-1{fill:url(#radial-gradient);}.cls-2,.cls-5{opacity:0.5;}.cls-3,.cls-5,.cls-6{fill:#fff;}.cls-4{fill:none;stroke:#2e468e;stroke-miterlimit:10;}.cls-6{opacity:0.7;}</style><radialGradient id="radial-gradient" cx="-312.12" cy="-37.16" fx="-321.05851185816044" fy="-48.886638406682316" r="22.05" gradientTransform="translate(373.73 56.61) scale(1.16 1.16)" gradientUnits="userSpaceOnUse"><stop offset="0" stop-color="#6f82bc"/><stop offset="1" stop-color="#2c48a0"/></radialGradient></defs><title>delivery</title><g id="Layer_2" data-name="Layer 2"><g id="Layer_1-2" data-name="Layer 1"><circle class="cls-1" cx="14.05" cy="14.05" r="12.05"/><g class="cls-2"><path class="cls-3" d="M14.05,2A12.05,12.05,0,1,1,2,14.05,12.05,12.05,0,0,1,14.05,2m0-2A14.05,14.05,0,1,0,28.1,14.05a14.06,14.06,0,0,0-14-14Z"/></g><circle class="cls-4" cx="14.05" cy="14.05" r="12.05"/><polygon class="cls-3" points="14.06 13.63 18.81 11 14.15 8.21 9.41 10.84 14.06 13.63"/><polygon class="cls-5" points="13.6 14.41 8.94 11.62 8.85 17.04 13.6 19.89 13.6 14.41"/><polygon class="cls-6" points="14.51 14.42 14.51 19.8 19.16 17.22 19.25 11.79 14.51 14.42"/></g></g></svg>