<svg xmlns="http://www.w3.org/2000/svg" xmlns:xlink="http://www.w3.org/1999/xlink" viewBox="0 0 22.5 22.5"><defs><style>.cls-1,.cls-2,.cls-4{fill:#7fc0f4;}.cls-1{clip-rule:evenodd;}.cls-2{fill-rule:evenodd;}.cls-3{clip-path:url(#clip-path);}.cls-4{opacity:0.9;}</style><clipPath id="clip-path"><path class="cls-1" d="M11.25,17.25a6,6,0,1,1,4.24-1.76A6,6,0,0,1,11.25,17.25Zm0-13.5A7.51,7.51,0,1,0,16.55,6,7.5,7.5,0,0,0,11.25,3.75Zm2.29,4.13a2.18,2.18,0,0,0-.79-.52,3,3,0,0,0-1.22-.2,3,3,0,0,0-.9.11,3.43,3.43,0,0,0-1.35.64,2.85,2.85,0,0,0-.43.42l.75,1a2.91,2.91,0,0,1,.85-.58,2.25,2.25,0,0,1,1-.23,1.1,1.1,0,0,1,.75.27.85.85,0,0,1,0,1.22q-.27.26-.54.48c-.17.14-.34.3-.51.46a2.47,2.47,0,0,0-.36.49,2.67,2.67,0,0,0-.23.59,3.18,3.18,0,0,0-.07.75H12a1.7,1.7,0,0,1,.08-.55,1.78,1.78,0,0,1,.23-.43,1.57,1.57,0,0,1,.31-.32,3.18,3.18,0,0,1,.37-.27,5,5,0,0,0,.39-.32,3.62,3.62,0,0,0,.36-.42,2.16,2.16,0,0,0,.26-.5,1.65,1.65,0,0,0,.1-.58A2.41,2.41,0,0,0,14,8.6,1.78,1.78,0,0,0,13.54,7.88Zm-3,7.87H12v-1.5H10.5Z"/></clipPath></defs><title>question</title><g id="Layer_2" data-name="Layer 2"><g id="Layer_1-2" data-name="Layer 1"><path class="cls-2" d="M11.25,17.25a6,6,0,1,1,4.24-1.76A6,6,0,0,1,11.25,17.25Zm0-13.5A7.51,7.51,0,1,0,16.55,6,7.5,7.5,0,0,0,11.25,3.75Zm2.29,4.13a2.18,2.18,0,0,0-.79-.52,3,3,0,0,0-1.22-.2,3,3,0,0,0-.9.11,3.43,3.43,0,0,0-1.35.64,2.85,2.85,0,0,0-.43.42l.75,1a2.91,2.91,0,0,1,.85-.58,2.25,2.25,0,0,1,1-.23,1.1,1.1,0,0,1,.75.27.85.85,0,0,1,0,1.22q-.27.26-.54.48c-.17.14-.34.3-.51.46a2.47,2.47,0,0,0-.36.49,2.67,2.67,0,0,0-.23.59,3.18,3.18,0,0,0-.07.75H12a1.7,1.7,0,0,1,.08-.55,1.78,1.78,0,0,1,.23-.43,1.57,1.57,0,0,1,.31-.32,3.18,3.18,0,0,1,.37-.27,5,5,0,0,0,.39-.32,3.62,3.62,0,0,0,.36-.42,2.16,2.16,0,0,0,.26-.5,1.65,1.65,0,0,0,.1-.58A2.41,2.41,0,0,0,14,8.6,1.78,1.78,0,0,0,13.54,7.88Zm-3,7.87H12v-1.5H10.5Z"/><g class="cls-3"><rect class="cls-4" width="22.5" height="22.5"/></g></g></g></svg>