<?xml version="1.0" encoding="UTF-8"?> <svg xmlns="http://www.w3.org/2000/svg" width="163" height="24" viewBox="0 0 163 24" fill="none"><path fill-rule="evenodd" clip-rule="evenodd" d="M7.84358 5.18014C6.50716 5.18014 5.41977 6.21942 5.41977 7.49672V16.5032C5.41977 17.7807 6.50716 18.8198 7.84358 18.8198L31.0981 18.8196C31.7741 18.835 32.2 19.1055 32.6571 19.8493C33.02 20.4399 33.4026 21.3286 33.9456 22.6267C34.0043 22.7668 34.0822 22.9508 34.1563 23.1258C34.258 23.3661 34.3526 23.5896 34.3806 23.6594C34.3866 23.6744 34.397 23.7092 34.397 23.7261V23.7438C34.397 23.8851 34.277 24 34.1288 24H7.84358C3.51867 24 0 20.6368 0 16.5032V7.49672C0 3.363 3.51867 0 7.84358 0H34.1288C34.277 0 34.397 0.114833 34.397 0.256187V0.273822C34.397 0.290919 34.3866 0.325517 34.3806 0.340595C34.3528 0.40994 34.2592 0.630966 34.1582 0.869557C34.0836 1.04598 34.0048 1.23201 33.9456 1.37342C33.4026 2.67131 33.02 3.56009 32.6571 4.15068C32.2 4.89447 31.7741 5.16493 31.0981 5.18027L7.84358 5.18014ZM120.505 0.273909V0.256408C120.505 0.115055 120.385 0.00062561 120.238 0.00062561H93.9528C89.6271 0.00062561 86.1087 3.3635 86.1087 7.49641L86.1227 23.6228L86.1237 23.6362L86.1241 23.6442C86.1383 23.8382 86.3158 23.9998 86.5241 23.9998C86.5665 23.9998 86.61 23.9917 86.6482 23.9808C86.9854 23.8497 87.3251 23.7299 87.6405 23.6187L87.6408 23.6186L87.6409 23.6186C87.8562 23.5427 88.06 23.4708 88.2439 23.4021C88.8116 23.1907 89.2919 22.9888 89.6963 22.7949C91.133 22.1097 91.6174 21.5268 91.616 20.9896C91.6133 20.303 91.6061 17.7491 91.6061 17.7491L109.413 17.7452C109.462 17.7439 109.511 17.7412 109.558 17.7371C110.152 17.6872 110.548 17.4046 110.972 16.7154C111.04 16.6048 111.109 16.4838 111.178 16.3519C111.483 15.7784 111.819 14.9935 112.261 13.9381C112.33 13.771 112.427 13.5414 112.513 13.3391C112.598 13.1387 112.671 12.9651 112.695 12.9055C112.702 12.8907 112.712 12.8557 112.712 12.8382V12.8207C112.712 12.6794 112.592 12.5649 112.444 12.5649H91.5287V7.49641C91.5287 6.57828 92.0921 5.78401 92.9063 5.40976C93.2233 5.26437 93.5767 5.17955 93.9528 5.17955L117.206 5.1809C117.883 5.16474 118.308 4.89415 118.766 4.15104C118.833 4.04065 118.902 3.91949 118.973 3.78756C119.277 3.21272 119.612 2.42787 120.054 1.37378C120.125 1.20604 120.222 0.975274 120.308 0.77237C120.392 0.573038 120.465 0.400596 120.49 0.341221C120.495 0.325066 120.505 0.29141 120.505 0.273909ZM133.727 16.5033C133.727 17.7806 134.814 18.8199 136.151 18.8199H154.307C155.644 18.8199 156.731 17.7806 156.731 16.5033L156.731 3.16273C156.747 2.51668 157.03 2.10958 157.808 1.67273C158.426 1.3258 159.356 0.96017 160.714 0.441066C160.861 0.384951 161.054 0.310433 161.237 0.239562L161.244 0.236751L161.246 0.235937C161.494 0.14021 161.723 0.0518479 161.795 0.0254859C161.81 0.0196972 161.847 0.00973511 161.864 0.00973511H161.883C162.031 0.00973511 162.151 0.124433 162.151 0.265922V16.5033C162.151 20.6369 158.632 24 154.307 24H136.151C131.826 24 128.307 20.6369 128.307 16.5033V0.265922C128.307 0.124433 128.427 0.00973511 128.575 0.00973511H128.594C128.612 0.00973511 128.648 0.0196972 128.664 0.0254859C128.735 0.0516918 128.961 0.139165 129.207 0.234237L129.213 0.236247C129.398 0.308104 129.595 0.384075 129.744 0.441066C131.102 0.96017 132.032 1.3258 132.65 1.67273C133.428 2.10958 133.711 2.51668 133.727 3.16273L133.727 16.5033ZM43.3224 23.6438L43.3224 23.6343L43.3224 23.6223L43.3079 7.52696C43.3399 3.39338 46.848 0.020279 51.1729 0.00775909H69.3746C73.6995 0.020279 77.2076 3.39338 77.2396 7.52696L77.2251 23.6223V23.6452C77.2097 23.8384 77.0322 23.9999 76.8233 23.9999C76.7815 23.9999 76.7376 23.9924 76.6998 23.9805C76.3609 23.8492 76.0194 23.7288 75.7026 23.617C75.4889 23.5417 75.2865 23.4703 75.1035 23.4022C72.5269 22.4411 71.7301 21.6779 71.7323 20.9903L71.7425 17.7488H48.805L48.8152 20.9903C48.8174 21.6779 48.0206 22.4411 45.444 23.4022C45.261 23.4703 45.0585 23.5417 44.8449 23.6171C44.528 23.7288 44.1866 23.8492 43.8477 23.9805C43.8099 23.9924 43.766 23.9999 43.7241 23.9999C43.5153 23.9999 43.33 23.8373 43.3224 23.6438ZM71.7416 12.5864V7.52966C71.7416 6.18667 70.6025 5.09798 69.1973 5.09798H51.3503C49.9452 5.09798 48.8061 6.18667 48.8061 7.52966V12.5864H71.7416Z" fill="#323E48"></path></svg> 